<?xml version="1.0" encoding="UTF-8"?>
<svg xmlns="http://www.w3.org/2000/svg" xmlns:xlink="http://www.w3.org/1999/xlink" width="512" height="512" viewBox="0 0 55 58" version="1.1"><!-- Generator: Sketch 51.3 (57544) - http://www.bohemiancoding.com/sketch --><title>020 - Family Tree</title><desc>Created with Sketch.</desc><defs/><g id="Page-1" stroke="none" stroke-width="1" fill="none" fill-rule="evenodd"><g id="020---Family-Tree"><path d="M50.08,29 L52.08,29 C53.1832019,29.0032948 54.0767052,29.8967981 54.08,31 L54.08,56 C54.0767052,57.1032019 53.1832019,57.9967052 52.08,58 L28.58,58 C28.002253,58.0045841 27.4524648,57.7516815 27.08,57.31 L27.08,54 L50.08,29 Z" id="Shape" fill="#7F6E5D" fill-rule="nonzero"/><path d="M50.08,28.16 L50.08,52.99 C50.0830764,53.2570658 49.9790309,53.5142322 49.7911162,53.704026 C49.6032016,53.8938198 49.3470832,54.0004189 49.08,54 C48.8585551,54.0023068 48.6430969,53.9281326 48.47,53.79 C45.2694,51.3431 42.23,51.81 38.08,52.0218 C34.8526,52.1865 30.6631,51.4231 27.08,54 L24.08,38.6667 L27.08,25.17 C29.5425706,23.4382992 32.413212,22.3768855 35.41,22.09 C40.72,21.63 45.71,24.06 49.72,27.37 C49.9501468,27.5677218 50.0817825,27.8565889 50.08,28.16 Z" id="Shape" fill="#F9EAB0" fill-rule="nonzero"/><path d="M49.08,54 L27.08,54 C35.27,48.11 42.78,49.44 48.47,53.79 C48.6430969,53.9281326 48.8585551,54.0023068 49.08,54 Z" id="Shape" fill="#B19046" fill-rule="nonzero"/><path d="M27.08,54 L27.08,57.31 C27.06,57.3 27.05,57.28 27.04,57.27 C26.662939,57.7330165 26.0971246,58.0012272 25.5,58 L2,58 C0.896775421,57.9967598 0.00324019568,57.1032246 0,56 L0,31 C0.00324019568,29.8967754 0.896775421,29.0032402 2,29 L4,29 L27.08,54 Z" id="Shape" fill="#CBB292" fill-rule="nonzero"/><path d="M27.08,25.17 L27.08,54.0000511 L27,54 C23.0425,51.1539 19.3112,51.97 15.8,52.0218 C12.0446,52.077 8.5507,51.5418 5.61,53.79 C5.43689113,53.9281108 5.22144088,54.0022822 5,54 C4.73290846,54.0004461 4.47677421,53.8938556 4.28885365,53.7040558 C4.10093308,53.514256 3.9968964,53.2570739 4,52.99 L4,28.16 C3.99820394,27.856586 4.12984207,27.5677134 4.36,27.37 C8.37,24.06 13.36,21.63 18.67,22.09 C21.6667767,22.3769352 24.5374057,23.4383442 27,25.17 L27.08,25.17 Z" id="Shape" fill="#F5EFCA" fill-rule="nonzero"/><path d="M27,26.5518 C26.780926,26.5517803 26.5679052,26.4799069 26.3936,26.3472 C25.8418,25.9263 21,22.126 21,18.2759 C21.0002471,17.9072048 21.2032302,17.5685181 21.5282604,17.3944732 C21.8532905,17.2204284 22.2476981,17.2392284 22.5547,17.4434 C23.3203,17.9534 25.6133,19.2759 27,19.2759 C27.5522847,19.2759 28,19.7236153 28,20.2759 C28,20.8281847 27.5522847,21.2759 27,21.2759 C25.8202903,21.1973078 24.6697294,20.8747394 23.6211,20.3286 C24.5218477,21.8176845 25.6636874,23.1468064 27,24.2617 C28.5,22.9717 31,20.3823 31,18.2759 C31,17.7236153 31.4477153,17.2759 32,17.2759 C32.5522847,17.2759 33,17.7236153 33,18.2759 C33,22.1259 28.1582,25.9259 27.6064,26.3472 C27.4320948,26.4799069 27.219074,26.5517803 27,26.5518 Z" id="Shape" fill="#7F5B53" fill-rule="nonzero"/><path d="M27,21.2692 C27.5522847,21.2692 28,20.8214847 28,20.2692 C28,19.7169153 27.5522847,19.2692 27,19.2692 C25.6133,19.2692 23.3208,17.9465 22.5542,17.4367 C22.0945334,17.1304857 21.4736643,17.2548834 21.16745,17.71455 C20.8612357,18.1742166 20.9856334,18.7950857 21.4453,19.1013 C21.7783,19.3229 24.7617,21.2692 27,21.2692 Z" id="Shape" fill="#AF8066" fill-rule="nonzero"/><path d="M27,40 C26.8183253,40.0000213 26.640077,39.9505501 26.4844,39.8569 C26.2607,39.7217 21,36.5063 21,32.2759 C21,28.0455 26.2607,24.8301 26.4844,24.6948 C26.8017654,24.5043947 27.1982346,24.5043947 27.5156,24.6948 C27.7393,24.83 33,28.0454 33,32.2759 C33,36.5064 27.7393,39.7217 27.5156,39.8569 C27.359923,39.9505501 27.1816747,40.0000213 27,40 Z M27.001,26.7456 C25.541,27.7627 23,30.0056 23,32.2756 C23,34.5556 25.5391,36.7922 26.999,37.8056 C28.459,36.7885 31,34.5456 31,32.2756 C31,29.9961 28.4609,27.7593 27.001,26.7456 Z" id="Shape" fill="#7F5B53" fill-rule="nonzero"/><path d="M32,47 C31.4477153,47 31,46.5522847 31,46 C31,43.8916 28.4883,41.4434 27.001,40.2539 C25.5137,41.4458 23,43.8979 23,46 C23,46.5522847 22.5522847,47 22,47 C21.4477153,47 21,46.5522847 21,46 C21,42.1284 25.8682,38.5757 26.4229,38.1836 C26.7685985,37.9385042 27.2314015,37.9385042 27.5771,38.1836 C28.1318,38.5757 33,42.1284 33,46 C33,46.5522847 32.5522847,47 32,47 Z" id="Shape" fill="#7F5B53" fill-rule="nonzero"/><path d="M28,31.2759 L26,31.2759 C25.4477153,31.2759 25,30.8281847 25,30.2759 C25,29.7236153 25.4477153,29.2759 26,29.2759 L28,29.2759 C28.5522847,29.2759 29,29.7236153 29,30.2759 C29,30.8281847 28.5522847,31.2759 28,31.2759 Z" id="Shape" fill="#7F5B53" fill-rule="nonzero"/><path d="M28,35.2759 L26,35.2759 C25.4477153,35.2759 25,34.8281847 25,34.2759 C25,33.7236153 25.4477153,33.2759 26,33.2759 L28,33.2759 C28.5522847,33.2759 29,33.7236153 29,34.2759 C29,34.8281847 28.5522847,35.2759 28,35.2759 Z" id="Shape" fill="#7F5B53" fill-rule="nonzero"/><path d="M27,21.2692 C26.4477153,21.2692 26,20.8214847 26,20.2692 C26,19.7169153 26.4477153,19.2692 27,19.2692 C28.3867,19.2692 30.6792,17.9465 31.4458,17.4367 C31.7431522,17.2386141 32.1235944,17.2142107 32.4438179,17.3726822 C32.7640414,17.5311538 32.9753966,17.8484247 32.9982679,18.2049822 C33.0211393,18.5615397 32.8520522,18.9032141 32.5547,19.1013 C32.2217,19.3229 29.2383,21.2692 27,21.2692 Z" id="Shape" fill="#AF8066" fill-rule="nonzero"/><path d="M22,19.2692 C21.724079,19.2694412 21.460368,19.15545 21.2715,18.9543 C18.5390047,16.445329 14.7963002,15.3475675 11.1415,15.9831 C10.6006032,16.0502664 10.1055424,15.6719034 10.0283499,15.1323462 C9.95115737,14.592789 10.3202682,14.090792 10.8583,14.0036 C15.1582443,13.2740205 19.5517528,14.5997964 22.7304,17.5861 C23.0025503,17.8770649 23.0760224,18.3018175 22.9174205,18.6672923 C22.7588187,19.032767 22.3984048,19.2692299 22,19.2692 Z" id="Shape" fill="#AF8066" fill-rule="nonzero"/><path d="M17.9707,16.7536 C17.569237,16.7537363 17.2066114,16.513771 17.0498,16.1442 C16.3928242,13.7769973 15.9753608,11.3497731 15.8037,8.8991 C15.7677134,8.35577519 16.1730472,7.88352319 16.7155466,7.8367128 C17.2580461,7.78990241 17.7382844,8.18574148 17.7959,8.7272 C17.9613977,10.9671172 18.3277699,13.1876402 18.8906,15.362 C19.0215051,15.6708779 18.9889803,16.024794 18.8039717,16.3046396 C18.6189631,16.5844852 18.3060719,16.7530483 17.9706,16.7536 L17.9707,16.7536 Z" id="Shape" fill="#AF8066" fill-rule="nonzero"/><path d="M32.0005,19.2673 C31.6025179,19.2674122 31.2424008,19.0313809 31.083707,18.6664068 C30.9250132,18.3014328 30.9979929,17.8770874 31.2695,17.5861 C34.4477876,14.5991737 38.8416108,13.2733028 43.1416,14.0036 C43.6796318,14.090792 44.0487426,14.592789 43.9715501,15.1323462 C43.8943576,15.6719034 43.3992968,16.0502664 42.8584,15.9831 C39.2034995,15.3473241 35.4606201,16.4453216 32.7284,18.9548 C32.5390237,19.1545743 32.2757691,19.2675941 32.0005,19.2673 Z" id="Shape" fill="#AF8066" fill-rule="nonzero"/><path d="M36.0293,16.7536 C35.6938281,16.7530483 35.3809369,16.5844852 35.1959283,16.3046396 C35.0109197,16.024794 34.9783949,15.6708779 35.1093,15.362 C35.6721301,13.1876402 36.0385023,10.9671172 36.204,8.7272 C36.2616156,8.18574148 36.7418539,7.78990241 37.2843534,7.8367128 C37.8268528,7.88352319 38.2321866,8.35577519 38.1962,8.8991 C38.0245065,11.3497765 37.6070096,13.7770007 36.95,16.1442 C36.793217,16.513704 36.4306903,16.753656 36.0293,16.7536 Z" id="Shape" fill="#AF8066" fill-rule="nonzero"/><path d="M9.22,13.09 C9.85463372,13.2540481 10.4000697,13.6595367 10.74,14.22 C10.8858418,14.4580444 10.9811508,14.723548 11.02,15 C11.1203069,16.6075929 10.2448153,18.1180131 8.8,18.83 C6.89,19.94 2.1,19.26 2.1,19.26 C2.1,19.26 3.76,15.04 5.6,13.76" id="Shape" fill="#4FBA6F"/><path d="M48.5,13.76 C50.34,15.04 51.99,19.26 51.99,19.26 C51.99,19.26 47.2,19.94 45.3,18.83 C43.39,17.72 42.52,15.65 43.35,14.22 C43.6921927,13.6616005 44.2366907,13.2568092 44.87,13.09" id="Shape" fill="#4FBA6F"/><path d="M17.28,8.25 C17.1534935,8.46585374 16.9911765,8.65860519 16.8,8.82 C16.74,8.87 16.67,8.92 16.6,8.97 C15.22,9.9 13.11,9.16 11.88,7.32 C10.64,5.49 11.02,0.67 11.02,0.67 C11.02,0.67 15.5,2.11 16.8,3.9 C16.82,3.93 16.84,3.95 16.86,3.98 C16.95,4.12 17.03,4.25 17.11,4.39" id="Shape" fill="#4FBA6F"/><path d="M17.19,4.1784 C18.12,2.1747 22.4375,0 22.4375,0 C22.4375,0 23.5618,4.7018 22.6314,6.7054 C21.701,8.709 19.7285,9.7676 18.2258,9.0698 C16.7231,8.372 16.2591,6.182 17.19,4.1784 Z" id="Shape" fill="#71C285"/><path d="M36.89,4.39 C36.97,4.25 37.05,4.12 37.14,3.98 C37.16,3.95 37.18,3.93 37.2,3.9 C38.5,2.11 42.98,0.67 42.98,0.67 C42.98,0.67 43.36,5.49 42.12,7.32 C40.89,9.16 38.78,9.9 37.4,8.97 C37.33,8.92 37.26,8.87 37.2,8.82 C37.0088235,8.65860519 36.8465065,8.46585374 36.72,8.25" id="Shape" fill="#4FBA6F"/><path d="M36.8105,4.1784 C35.88,2.1747 31.5625,0 31.5625,0 C31.5625,0 30.4382,4.7018 31.3686,6.7054 C32.299,8.709 34.2715,9.7676 35.7743,9.0698 C37.2771,8.372 37.7409,6.182 36.8105,4.1784 Z" id="Shape" fill="#71C285"/><path d="M49.6729,13.1983 C51.5305,12.0026 53.0944,7.4283 53.0944,7.4283 C53.0944,7.4283 48.2831,6.9574 46.4255,8.1531 C44.5679,9.3488 43.789,11.4475 44.6855,12.8407 C45.582,14.2339 47.8153,14.394 49.6729,13.1983 Z" id="Shape" fill="#71C285"/><path d="M4.4215,13.1983 C2.5639,12.0026 1,7.4283 1,7.4283 C1,7.4283 5.8113,6.9574 7.6689,8.1531 C9.5265,9.3488 10.3055,11.4475 9.4089,12.8407 C8.5123,14.2339 6.2791,14.394 4.4215,13.1983 Z" id="Shape" fill="#71C285"/><path d="M27,54 L5,54 C5.22144088,54.0022822 5.43689113,53.9281108 5.61,53.79 C11.3,49.44 18.81,48.11 27,54 Z" id="Shape" fill="#E4C05C" fill-rule="nonzero"/></g></g></svg>
